<svg width="139" height="93" viewBox="0 0 139 93" fill="none" xmlns="http://www.w3.org/2000/svg">
<rect width="138.84" height="92.5598" rx="40" fill="#FFCC16"/>
<path d="M69 53.1053C73.7429 53.1053 77.5429 49.2968 77.5429 44.5789L77.5714 27.5263C77.5714 22.8084 73.7429 19 69 19C64.2571 19 60.4286 22.8084 60.4286 27.5263V44.5789C60.4286 49.2968 64.2571 53.1053 69 53.1053ZM84.1429 44.5789C84.1429 53.1053 76.8857 59.0737 69 59.0737C61.1143 59.0737 53.8571 53.1053 53.8571 44.5789H49C49 54.2705 56.7714 62.2853 66.1429 63.6779V73H71.8571V63.6779C81.2286 62.3137 89 54.2989 89 44.5789H84.1429Z" fill="white"/>
</svg>
